<svg width="30" height="29" viewBox="0 0 30 29" fill="none" xmlns="http://www.w3.org/2000/svg">
<path d="M15.0002 28.9998C15.0002 28.9998 17.8799 26.7502 19.0002 25.8087C24.0177 21.6 30.0002 15.3925 30.0002 9.70874C30.0849 7.4644 29.2779 5.27775 27.7555 3.62653C26.2331 1.97531 24.119 0.993729 21.8752 0.89624L15.0002 28.9998ZM15.0002 28.9998C15.0002 28.9998 12.1205 26.7502 11.0002 25.8087L15.0002 28.9998ZM18.3981 2.89282C19.446 2.26413 20.6399 1.92077 21.8613 1.89664C23.8302 1.98995 25.6836 2.85466 27.0203 4.30438C28.3636 5.76134 29.0756 7.69073 29.0009 9.67103L29.0002 9.68988V9.70874C29.0002 12.2215 27.6639 14.9768 25.5861 17.7061C23.5263 20.4118 20.8383 22.9617 18.3575 25.0426L18.3568 25.0432C17.81 25.5027 16.8217 26.2913 15.9598 26.9729C15.6016 27.2562 15.2676 27.5191 15.0002 27.7292C14.7327 27.5191 14.3988 27.2562 14.0406 26.9729C13.1787 26.2913 12.1904 25.5027 11.6435 25.0432L11.6429 25.0426C9.16213 22.9617 6.47408 20.4118 4.4143 17.7061C2.33649 14.9768 1.00019 12.2215 1.00019 9.70874V9.68988L0.999481 9.67103C0.924756 7.69073 1.63683 5.76134 2.98012 4.30438C4.31674 2.85466 6.17021 1.98995 8.13907 1.89664C9.36044 1.92077 10.5544 2.26413 11.6022 2.89282C12.6585 3.52656 13.5288 4.42779 14.1253 5.50549L15.0002 7.08627L15.8751 5.50549C16.4716 4.42779 17.3419 3.52656 18.3981 2.89282Z" stroke="black" stroke-width="2"/>
</svg>
