<svg width="30" height="30" viewBox="0 0 30 30" fill="none" xmlns="http://www.w3.org/2000/svg">
<g clip-path="url(#clip0_4161_152)">
<path d="M15.0002 29.9998C15.0002 29.9998 17.8799 27.7502 19.0002 26.8087C24.0177 22.6 30.0002 16.3925 30.0002 10.7087C30.0849 8.4644 29.2779 6.27775 27.7555 4.62653C26.2331 2.97531 24.119 1.99373 21.8752 1.89624L15.0002 29.9998ZM15.0002 29.9998C15.0002 29.9998 12.1205 27.7502 11.0002 26.8087L15.0002 29.9998ZM18.3981 3.89282C19.446 3.26413 20.6399 2.92077 21.8613 2.89664C23.8302 2.98995 25.6836 3.85466 27.0203 5.30438C28.3636 6.76134 29.0756 8.69073 29.0009 10.671L29.0002 10.6899V10.7087C29.0002 13.2215 27.6639 15.9768 25.5861 18.7061C23.5263 21.4118 20.8383 23.9617 18.3575 26.0426L18.3568 26.0432C17.81 26.5027 16.8217 27.2913 15.9598 27.9729C15.6016 28.2562 15.2676 28.5191 15.0002 28.7292C14.7327 28.5191 14.3988 28.2562 14.0406 27.9729C13.1787 27.2913 12.1904 26.5027 11.6435 26.0432L11.6429 26.0426C9.16213 23.9617 6.47408 21.4118 4.4143 18.7061C2.33649 15.9768 1.00019 13.2215 1.00019 10.7087V10.6899L0.999481 10.671C0.924756 8.69073 1.63683 6.76134 2.98012 5.30438C4.31674 3.85466 6.17021 2.98995 8.13907 2.89664C9.36044 2.92077 10.5544 3.26413 11.6022 3.89282C12.6585 4.52656 13.5288 5.42779 14.1253 6.50549L15.0002 8.08627L15.8751 6.50549C16.4716 5.42779 17.3419 4.52656 18.3981 3.89282Z" stroke="black" stroke-width="2"/>
</g>
<defs>
<clipPath id="clip0_4161_152">
<rect width="30" height="30" fill="white"/>
</clipPath>
</defs>
</svg>
