<svg width="30" height="30" viewBox="0 0 30 30" fill="none" xmlns="http://www.w3.org/2000/svg">
<path d="M24.915 5.0278C22.3931 2.50592 18.9094 0.945923 15.0609 0.945923C7.365 0.945923 1.125 7.18499 1.125 14.8819C1.125 17.4431 1.81594 19.8422 3.02062 21.9047L2.985 21.839L1.00781 29.0597L8.39438 27.1219C10.3172 28.1897 12.6112 28.8178 15.0525 28.8178H15.0581C22.7541 28.815 28.9912 22.575 28.9912 14.879C28.9912 11.0325 27.4331 7.55061 24.9141 5.02874L24.915 5.0278ZM15.0581 26.4637H15.0534C12.8794 26.4637 10.8441 25.8637 9.10687 24.8203L9.15938 24.8494L8.73656 24.599L4.35375 25.7494L5.52281 21.4753L5.24719 21.0375C4.13625 19.2919 3.47625 17.1647 3.47625 14.8828C3.47625 8.48717 8.66156 3.30186 15.0572 3.30186C21.4528 3.30186 26.6381 8.48717 26.6381 14.8828C26.6381 21.2784 21.4547 26.4637 15.0581 26.4637ZM21.4106 17.7909C21.0628 17.6165 19.3509 16.7756 19.0322 16.6584C18.7125 16.5422 18.48 16.485 18.2475 16.8337C18.0169 17.1815 17.3494 17.9653 17.1459 18.1978C16.9434 18.4312 16.7391 18.4594 16.3912 18.2859C15.3131 17.849 14.3869 17.2669 13.5816 16.5497L13.5909 16.5581C12.8419 15.8644 12.1997 15.0703 11.6813 14.1947L11.655 14.1459C11.4525 13.7981 11.6334 13.6097 11.8069 13.4362C11.9634 13.2806 12.1556 13.0294 12.3291 12.8269C12.4659 12.659 12.5831 12.4669 12.6722 12.2606L12.6778 12.2447C12.7181 12.1631 12.7416 12.0684 12.7416 11.9672C12.7416 11.8444 12.7069 11.73 12.6469 11.6325L12.6488 11.6353C12.5606 11.4609 11.865 9.74717 11.5753 9.04967C11.2922 8.37092 11.0044 8.46374 10.7916 8.45249C10.5891 8.44311 10.3566 8.44124 10.1241 8.44124C9.75375 8.45061 9.42469 8.61749 9.19781 8.8753L9.19688 8.87717C8.445 9.59061 7.97813 10.5965 7.97813 11.7112C7.97813 11.7356 7.97813 11.7609 7.97906 11.7853V11.7815C8.10187 13.1569 8.6175 14.3915 9.41063 15.3975L9.39937 15.3834C10.9031 17.6137 12.9075 19.3978 15.2597 20.5997L15.3478 20.64C15.8616 20.8725 16.5197 21.1209 17.1928 21.3337L17.3325 21.3722C17.7469 21.5034 18.2241 21.5794 18.7191 21.5794C19.0031 21.5794 19.2825 21.554 19.5525 21.5062L19.5234 21.51C20.5256 21.3009 21.3572 20.6962 21.8644 19.8703L21.8728 19.8544C22.0275 19.5112 22.1175 19.1109 22.1175 18.69C22.1175 18.5165 22.1025 18.3469 22.0734 18.1819L22.0763 18.1997C21.99 18.0544 21.7575 17.9681 21.4088 17.7928L21.4106 17.7909Z" fill="white"/>
</svg>
