<svg width="25" height="25" viewBox="0 0 25 25" fill="none" xmlns="http://www.w3.org/2000/svg">
<path d="M15.1878 9.91669L13.1384 11.4584C12.9392 11.325 12.7028 11.25 12.4497 11.25C11.7652 11.25 11.2051 11.8125 11.2051 12.5C11.2051 13.1875 11.7652 13.75 12.4497 13.75C13.1342 13.75 13.6943 13.1875 13.6943 12.5C13.6943 12.3709 13.6694 12.2459 13.6321 12.1292L15.6857 10.5834C15.8682 10.4459 15.9056 10.1834 15.7687 10C15.6317 9.81669 15.3704 9.77919 15.1878 9.91669Z" fill="url(#paint0_linear_2059_46)"/>
<path d="M23.9131 8.95417L22.1582 8.63333C22.013 8.60833 21.9384 8.50833 21.9052 8.45417C21.872 8.4 21.8305 8.28333 21.8844 8.14167L22.6768 6.075C22.8469 5.63333 22.7432 5.12917 22.4072 4.79583L20.1171 2.49583C19.9539 2.33138 19.7465 2.2182 19.5204 2.17011C19.2942 2.12201 19.059 2.14109 18.8434 2.225L16.7857 3.02083C16.6446 3.075 16.5326 3.02917 16.4745 3C16.4277 2.97374 16.3874 2.93728 16.3565 2.89329C16.3257 2.8493 16.305 2.79891 16.2961 2.74583L15.9767 0.9875C15.9269 0.710967 15.7821 0.460717 15.5676 0.280291C15.3531 0.0998641 15.0824 0.000681625 14.8026 0H10.0897C9.51298 0 9.01929 0.416667 8.91557 0.9875L8.59612 2.74583C8.57123 2.89167 8.47166 2.96667 8.41773 3C8.36379 3.03333 8.24763 3.075 8.10657 3.02083L6.04881 2.225C5.8333 2.14082 5.59801 2.12161 5.37178 2.16971C5.14556 2.21782 4.93822 2.33115 4.77516 2.49583L2.48508 4.79583C2.15318 5.12917 2.04531 5.63333 2.21541 6.075L3.00781 8.14167C3.06175 8.28333 3.01611 8.39583 2.98707 8.45417C2.95388 8.50833 2.88335 8.60833 2.734 8.63333L0.983244 8.95417C0.707903 9.00417 0.458731 9.14954 0.279082 9.36499C0.0994336 9.58043 0.000678687 9.85232 0 10.1333V14.8667C0 15.4458 0.414871 15.9417 0.983244 16.0458L2.73815 16.3667C2.88335 16.3917 2.95803 16.4917 2.99122 16.5458C3.02441 16.6 3.06589 16.7167 3.01196 16.8583L2.21956 18.925C2.04946 19.3667 2.15318 19.8708 2.48922 20.2042L4.77931 22.5042C4.94251 22.6686 5.14985 22.7818 5.37602 22.8299C5.60219 22.878 5.83741 22.8589 6.05296 22.775L8.11072 21.9792C8.25178 21.925 8.36379 21.9708 8.42188 22C8.47581 22.0333 8.57538 22.1042 8.60027 22.2542L8.91972 24.0125C8.96951 24.289 9.11425 24.5393 9.32877 24.7197C9.54329 24.9001 9.814 24.9993 10.0938 25H14.8067C15.3834 25 15.8771 24.5833 15.9808 24.0125L16.3003 22.25C16.3252 22.1042 16.4247 22.0292 16.4787 21.9958C16.5326 21.9625 16.6488 21.9208 16.7898 21.975L18.8476 22.7708C19.2873 22.9417 19.7893 22.8375 20.1212 22.5L22.4113 20.2C22.7432 19.8667 22.8511 19.3625 22.681 18.9208L21.8886 16.8542C21.8693 16.8037 21.8612 16.7496 21.8648 16.6956C21.8684 16.6417 21.8836 16.5891 21.9093 16.5417C21.9425 16.4875 22.013 16.3875 22.1624 16.3625L23.9131 16.0417C24.1885 15.9917 24.4377 15.8463 24.6173 15.6308C24.797 15.4154 24.8957 15.1435 24.8964 14.8625V10.1292C24.8964 9.55 24.4815 9.05417 23.9131 8.95V8.95417ZM20.644 13.75C20.3558 15.6595 19.414 17.4084 17.9805 18.6958C17.9349 18.7375 17.8892 18.7833 17.8436 18.8208C17.7191 18.9292 17.5864 19.0292 17.4578 19.1292C17.3831 19.1875 17.3084 19.2417 17.2337 19.2958C17.1134 19.3833 16.989 19.4625 16.8645 19.5417C16.7691 19.6 16.6737 19.6625 16.5782 19.7167C16.3515 19.8481 16.1189 19.969 15.8812 20.0792C15.7651 20.1333 15.6531 20.1833 15.5328 20.2292C15.4041 20.2792 15.2755 20.3292 15.1428 20.3708C15.0308 20.4083 14.9187 20.45 14.8067 20.4833C14.6615 20.525 14.5122 20.5625 14.367 20.5958C14.2633 20.6208 14.1554 20.65 14.0517 20.6708C13.8816 20.7042 13.7073 20.7292 13.5331 20.75C13.4418 20.7625 13.3547 20.7792 13.2634 20.7875C12.9979 20.8125 12.7282 20.8292 12.4544 20.8292C12.1806 20.8292 11.9109 20.8125 11.6454 20.7875C11.5541 20.7792 11.467 20.7625 11.3758 20.75C11.2015 20.7292 11.0273 20.7042 10.8572 20.6708C10.7493 20.65 10.6456 20.6208 10.5419 20.5958C10.3925 20.5625 10.2473 20.525 10.1021 20.4833C9.99009 20.45 9.87807 20.4083 9.76606 20.3708C9.6333 20.325 9.50469 20.2792 9.37608 20.2292C9.25991 20.1833 9.14375 20.1292 9.02759 20.0792C8.91142 20.025 8.79941 19.9708 8.68739 19.9125C8.56708 19.85 8.44677 19.7875 8.3306 19.7167L8.04434 19.5417C7.91988 19.4625 7.79542 19.3833 7.67511 19.2958C7.60043 19.2417 7.52575 19.1833 7.45108 19.1292C7.31832 19.0292 7.18971 18.9292 7.06525 18.8208L6.92834 18.6958C5.49488 17.4084 4.55303 15.6595 4.26487 13.75C4.20264 13.3417 4.16115 12.925 4.16115 12.5C4.16115 7.90417 7.88254 4.16667 12.4586 4.16667C17.0346 4.16667 20.756 7.90417 20.756 12.5C20.756 12.925 20.7145 13.3417 20.6523 13.75H20.644Z" fill="url(#paint1_linear_2059_46)"/>
<path d="M4.98254 12.5C4.98254 12.925 5.02818 13.3416 5.09456 13.75H6.48852C6.7416 13.75 6.94903 13.525 6.94903 13.25C6.94903 12.9416 6.97807 12.6458 7.01956 12.35L5.04892 11.5875C5.01158 11.8875 4.98669 12.1916 4.98669 12.5041L4.98254 12.5ZM5.19413 10.75L7.18136 11.5208C7.32241 11.0041 7.534 10.5208 7.79122 10.0708L6.02802 8.70415C5.65878 9.33331 5.37252 10.0208 5.19828 10.75H5.19413ZM6.48438 8.00832L8.25587 9.37915C8.63341 8.89165 9.08147 8.47081 9.58346 8.13332L8.57947 6.09581C7.76633 6.59581 7.05275 7.24582 6.48438 8.00832ZM12.0353 5.01248C11.0687 5.06665 10.1477 5.30831 9.31379 5.69998L10.3136 7.73331C10.8488 7.48331 11.4296 7.32915 12.0353 7.27498V5.01248ZM15.5866 5.70415C14.7305 5.30584 13.8071 5.07398 12.8651 5.02082V7.27082C13.4708 7.32082 14.0516 7.48331 14.5868 7.73331L15.5866 5.70415ZM16.3168 6.09998L15.317 8.13748C15.819 8.47082 16.267 8.89581 16.6487 9.37915L18.4202 8.00415C17.8477 7.24165 17.1341 6.59581 16.321 6.09581L16.3168 6.09998ZM18.8807 8.69998L17.1134 10.0708C17.3415 10.4625 17.5241 10.8875 17.6651 11.3375L19.6648 10.5625C19.4904 9.90892 19.2279 9.28232 18.8849 8.69998H18.8807ZM17.856 12.1541C17.9182 12.5083 17.9514 12.875 17.9514 13.25C17.9514 13.525 18.1547 13.75 18.4119 13.75H19.8059C19.8764 13.3416 19.9179 12.925 19.9179 12.5C19.9179 12.1208 19.8888 11.75 19.8308 11.3875L17.856 12.1541Z" fill="url(#paint2_linear_2059_46)"/>
<defs>
<linearGradient id="paint0_linear_2059_46" x1="0" y1="12.5" x2="24.8964" y2="12.5" gradientUnits="userSpaceOnUse">
<stop stop-color="#EA32D9"/>
<stop offset="1" stop-color="#004BED"/>
</linearGradient>
<linearGradient id="paint1_linear_2059_46" x1="0" y1="12.5" x2="24.8964" y2="12.5" gradientUnits="userSpaceOnUse">
<stop stop-color="#EA32D9"/>
<stop offset="1" stop-color="#004BED"/>
</linearGradient>
<linearGradient id="paint2_linear_2059_46" x1="0" y1="12.5" x2="24.8964" y2="12.5" gradientUnits="userSpaceOnUse">
<stop stop-color="#EA32D9"/>
<stop offset="1" stop-color="#004BED"/>
</linearGradient>
</defs>
</svg>
