<svg width="25" height="25" viewBox="0 0 25 25" fill="none" xmlns="http://www.w3.org/2000/svg">
<path fill-rule="evenodd" clip-rule="evenodd" d="M12.0466 10.6013H12.9534C13.5039 9.1451 14.643 7.92051 16.1455 7.19276L15.999 6.95316C15.7389 6.77128 15.4624 6.60996 15.1726 6.47092L13.9881 8.40755C13.8309 8.66485 13.4403 8.68597 13.2483 8.45684L12.5 7.64291L11.7517 8.45684C11.5597 8.68592 11.1691 8.6648 11.0119 8.40755L9.82737 6.47092C9.53755 6.60996 9.2611 6.77128 9.00099 6.95316L8.85444 7.1927C10.3569 7.92051 11.496 9.1451 12.0466 10.6013ZM13.9608 12.0348C13.9035 12.0351 13.8467 12.0236 13.7948 12.0013C13.7428 11.979 13.6968 11.9464 13.6602 11.9059C13.6236 11.8653 13.5973 11.8179 13.5831 11.7669C13.5689 11.7159 13.5672 11.6626 13.5781 11.6109C13.9121 9.99699 15.0435 8.64219 16.5822 7.90439L17.7668 9.84102C17.924 10.0983 18.3146 10.1194 18.5066 9.89031L19.2549 9.07638L20.0032 9.89031C20.1953 10.1194 20.5858 10.0983 20.743 9.84102L21.9276 7.90439C23.4662 8.64219 24.5977 9.99694 24.9316 11.6109C24.9425 11.6625 24.9409 11.7158 24.9267 11.7668C24.9125 11.8178 24.8862 11.8653 24.8496 11.9059C24.813 11.9464 24.767 11.979 24.7151 12.0013C24.6631 12.0236 24.6063 12.035 24.549 12.0348L13.9608 12.0348ZM0.451092 12.0348C0.393712 12.0351 0.33699 12.0236 0.285012 12.0013C0.233033 11.979 0.187091 11.9464 0.150492 11.9059C0.113893 11.8653 0.0875481 11.8179 0.0733542 11.7669C0.0591604 11.7159 0.0574706 11.6626 0.0684064 11.6109C0.402318 9.99699 1.5338 8.64219 3.0725 7.90439L4.25704 9.84102C4.41421 10.0983 4.80479 10.1194 4.99683 9.89031L5.74513 9.07638L6.49343 9.89031C6.68546 10.1194 7.07599 10.0983 7.23321 9.84102L8.41776 7.90439C9.9564 8.64219 11.0879 9.99694 11.4218 11.6109C11.4327 11.6625 11.4311 11.7158 11.4169 11.7668C11.4027 11.8178 11.3763 11.8653 11.3398 11.9058C11.3032 11.9464 11.2572 11.979 11.2052 12.0013C11.1533 12.0236 11.0965 12.035 11.0392 12.0348L0.451092 12.0348ZM5.74518 1.43347C7.35874 1.43347 8.6668 2.63347 8.6668 4.11372C8.6668 5.59398 7.35874 6.79398 5.74518 6.79398C4.13163 6.79398 2.82357 5.59393 2.82357 4.11372C2.82357 2.63352 4.13163 1.43347 5.74518 1.43347ZM6.55327 7.35577C6.28554 7.32139 6.01552 7.30415 5.74518 7.30418C5.47089 7.30418 5.2011 7.32184 4.93704 7.35577L5.74518 7.92995L6.55327 7.35577ZM3.96156 7.69204L4.71853 8.92964L5.10761 8.50638L3.96156 7.69204ZM6.77172 8.92964L7.5287 7.69204L6.38259 8.50638L6.77172 8.92964ZM19.2549 1.43347C20.8685 1.43347 22.1765 2.63347 22.1765 4.11372C22.1765 5.59398 20.8685 6.79398 19.2549 6.79398C17.6414 6.79398 16.3333 5.59398 16.3333 4.11372C16.3333 2.63347 17.6414 1.43347 19.2549 1.43347ZM20.063 7.35577C19.7953 7.32139 19.5253 7.30415 19.2549 7.30418C18.9806 7.30418 18.7108 7.32184 18.4468 7.35577L19.2549 7.92995L20.063 7.35577ZM17.4713 7.69204L18.2283 8.92964L18.6174 8.50638L17.4713 7.69204ZM20.2815 8.92964L21.0384 7.69204L19.8923 8.50638L20.2815 8.92964ZM25 13.5327V15.0846L22.9286 15.816C22.6657 16.8284 22.2285 17.7958 21.6335 18.6818L22.5351 20.544L20.1427 22.7388L18.1134 21.9119C17.1474 22.458 16.0926 22.8591 14.9888 23.1002L14.1917 25H10.8083L10.011 23.0997C8.90747 22.8585 7.85297 22.4575 6.88718 21.9116L4.85729 22.7387L2.46485 20.544L3.36615 18.6823C2.77095 17.7961 2.33368 16.8285 2.07082 15.8159L0 15.0846V13.5327H6.59948C6.59948 16.5225 9.24097 18.9457 12.4999 18.9457C15.759 18.9457 18.4005 16.5225 18.4005 13.5327H25ZM8.68282 13.5327C8.68282 15.4676 10.3909 17.0345 12.4999 17.0345C14.609 17.0345 16.3171 15.4676 16.3171 13.5327H8.68282ZM12.5001 0C14.1136 0 15.4217 1.2 15.4217 2.68026C15.4217 4.16051 14.1136 5.36051 12.5001 5.36051C10.8865 5.36051 9.57844 4.16051 9.57844 2.68026C9.57844 1.2 10.8865 0 12.5001 0ZM13.3081 5.9223L12.5 6.49648L11.6919 5.9223C11.9559 5.88837 12.2257 5.87071 12.5 5.87071C12.7743 5.87071 13.0441 5.88837 13.3081 5.9223ZM10.7164 6.25857L11.8625 7.07291L11.4735 7.49617L10.7164 6.25857ZM13.5266 7.49617L13.1375 7.07291L14.2836 6.25857L13.5266 7.49617Z" fill="url(#paint0_linear_2059_23)"/>
<defs>
<linearGradient id="paint0_linear_2059_23" x1="0" y1="12.5" x2="25" y2="12.5" gradientUnits="userSpaceOnUse">
<stop stop-color="#EA32D9"/>
<stop offset="1" stop-color="#004BED"/>
</linearGradient>
</defs>
</svg>
