<svg width="50" height="50" viewBox="0 0 50 50" fill="none" xmlns="http://www.w3.org/2000/svg">
<path fill-rule="evenodd" clip-rule="evenodd" d="M35.2109 26.375L26.3734 35.2188C25.7625 35.8282 24.7734 35.8282 24.1641 35.2188C23.5531 34.6094 23.5531 33.6094 24.1641 33L30.6031 26.5625H14.0625C13.1984 26.5625 12.5 25.8594 12.5 25C12.5 24.1406 13.1984 23.4375 14.0625 23.4375H30.6031L24.1641 17C23.5531 16.3906 23.5531 15.4062 24.1641 14.7812C24.7734 14.1718 25.7625 14.1718 26.3734 14.7812L35.2109 23.625C35.5859 24 35.7031 24.5156 35.6172 25C35.7031 25.4844 35.5859 26 35.2109 26.375ZM25 0C11.1922 0 0 11.1875 0 25C0 38.8125 11.1922 50 25 50C38.8078 50 50 38.8125 50 25C50 11.1875 38.8078 0 25 0Z" fill="white"/>
</svg>
