<svg width="26" height="26" viewBox="0 0 26 26" fill="none" xmlns="http://www.w3.org/2000/svg">
<path d="M19.2261 19.5679C19.7588 19.5674 20.1924 19.1343 20.1924 18.6011C20.1924 18.0684 19.7588 17.6348 19.2256 17.6348C18.6929 17.6348 18.2593 18.0684 18.2593 18.6011C18.2593 19.1345 18.6928 19.5669 19.2261 19.5679ZM19.2261 21.0327C17.9517 21.0327 16.9141 22.0698 16.9141 23.3447V25.0605C17.65 25.3513 18.4343 25.5004 19.2256 25.5C20.0189 25.5 20.802 25.3513 21.5376 25.0605V23.3447C21.5376 22.0698 20.5005 21.0327 19.2261 21.0327Z" fill="url(#paint0_linear_2059_64)"/>
<path d="M19.2256 12.9512C17.7571 12.9512 16.405 13.4585 15.3348 14.3069L11.6696 10.7039C11.68 10.6909 11.6908 10.6782 11.7012 10.665C12.4205 9.7536 12.8723 8.66014 13.0061 7.50679H17.8882C18.2312 9.27573 19.791 10.6157 21.6587 10.6157C23.7769 10.6157 25.5 8.89258 25.5 6.77441C25.5 4.65625 23.7769 2.93311 21.6587 2.93311C19.791 2.93311 18.2312 4.27305 17.8883 6.04194H13.0059C12.6418 2.92593 9.98613 0.5 6.77441 0.5C3.31445 0.5 0.5 3.31445 0.5 6.77441C0.5 8.79639 1.46045 10.6318 2.99756 11.7891V10.8936C2.99756 9.51074 3.74512 8.2998 4.85645 7.6416C4.53516 7.22949 4.34277 6.71191 4.34277 6.1499C4.34277 4.80908 5.43359 3.71875 6.77441 3.71875C8.11523 3.71875 9.20557 4.80908 9.20557 6.1499C9.20557 6.71191 9.01367 7.22949 8.69238 7.6416C9.55713 8.15381 10.2017 9.00098 10.4448 10.0034C10.5749 10.5393 10.5508 10.849 10.5508 11.7896L14.2926 15.3525C13.5952 16.2388 13.1315 17.3169 12.9941 18.4932H8.11172C7.7688 16.7243 6.20898 15.3843 4.34126 15.3843C2.22314 15.3843 0.5 17.1074 0.5 19.2256C0.5 21.3438 2.22314 23.0669 4.34131 23.0669C6.20894 23.0669 7.7687 21.727 8.11172 19.9581H12.9937C13.0918 20.801 13.36 21.6152 13.782 22.3513C14.2041 23.0875 14.7713 23.7303 15.4492 24.2407V23.3447C15.4492 21.9619 16.1963 20.751 17.3076 20.0928C16.9863 19.6807 16.7944 19.1631 16.7944 18.6011C16.7944 17.2607 17.8848 16.1699 19.2256 16.1699C20.5664 16.1699 21.6572 17.2607 21.6572 18.6011C21.6572 19.1631 21.4648 19.6807 21.1436 20.0928C22.2549 20.751 23.0024 21.9619 23.0024 23.3447V24.2402C23.7791 23.6553 24.4091 22.8978 24.8426 22.0274C25.276 21.1571 25.5011 20.1979 25.5 19.2256C25.5 15.7661 22.6855 12.9512 19.2256 12.9512Z" fill="url(#paint1_linear_2059_64)"/>
<path d="M7.74072 6.1499C7.74072 5.6167 7.30713 5.18359 6.77441 5.18359C6.24121 5.18359 5.80762 5.6167 5.80762 6.1499C5.80762 6.68262 6.24121 7.11621 6.77441 7.11621C7.30713 7.11621 7.74072 6.68262 7.74072 6.1499ZM4.4624 10.8936V12.6094C5.19717 12.8998 5.98022 13.0488 6.77441 13.0488C7.57295 13.0488 8.35586 12.898 9.08594 12.6094V10.8936C9.08594 9.61865 8.04932 8.58105 6.77441 8.58105C5.49951 8.58105 4.4624 9.61865 4.4624 10.8936Z" fill="url(#paint2_linear_2059_64)"/>
<defs>
<linearGradient id="paint0_linear_2059_64" x1="0.5" y1="13" x2="25.5" y2="13" gradientUnits="userSpaceOnUse">
<stop stop-color="#EA32D9"/>
<stop offset="1" stop-color="#004BED"/>
</linearGradient>
<linearGradient id="paint1_linear_2059_64" x1="0.5" y1="13" x2="25.5" y2="13" gradientUnits="userSpaceOnUse">
<stop stop-color="#EA32D9"/>
<stop offset="1" stop-color="#004BED"/>
</linearGradient>
<linearGradient id="paint2_linear_2059_64" x1="0.5" y1="13" x2="25.5" y2="13" gradientUnits="userSpaceOnUse">
<stop stop-color="#EA32D9"/>
<stop offset="1" stop-color="#004BED"/>
</linearGradient>
</defs>
</svg>
