<svg width="30" height="25" viewBox="0 0 30 25" fill="none" xmlns="http://www.w3.org/2000/svg">
<path d="M8.81745 14.2653C9.22962 13.7946 8.89387 13.0595 8.26661 13.0595H6.38859C6.37608 12.8733 6.36971 12.6867 6.36952 12.5C6.36952 7.84105 10.1762 4.05076 14.8553 4.05076C17.1039 4.05076 19.1507 4.92637 20.6707 6.35277L23.3189 3.26809C21.0007 1.15658 18.0174 0 14.8553 0C11.502 0 8.3494 1.30026 5.97823 3.66115C3.60711 6.02211 2.30122 9.16111 2.30122 12.5C2.30122 12.6872 2.30592 12.8736 2.31409 13.0595H0.73223C0.104969 13.0595 -0.230837 13.7945 0.181384 14.2653L3.74985 18.3409L4.49939 19.1969L7.19048 16.1234L8.81745 14.2653ZM29.5293 11.8875L26.8677 8.84765L25.2113 6.95585L22.8463 9.65688L20.8933 11.8875C20.4811 12.3583 20.8169 13.0933 21.4441 13.0933H23.3199C23.0131 17.4765 19.3341 20.9492 14.8554 20.9492C12.9003 20.9492 11.0978 20.2872 9.66138 19.1768L7.01301 22.2617C9.23164 24.0358 11.9689 25 14.8554 25C18.2087 25 21.3613 23.6998 23.7325 21.3388C25.9627 19.1183 27.2501 16.2094 27.3954 13.0934H28.9785C29.6057 13.0933 29.9415 12.3583 29.5293 11.8875Z" fill="url(#paint0_linear_2059_57)"/>
<defs>
<linearGradient id="paint0_linear_2059_57" x1="0" y1="12.5" x2="29.7107" y2="12.5" gradientUnits="userSpaceOnUse">
<stop stop-color="#EA32D9"/>
<stop offset="1" stop-color="#004BED"/>
</linearGradient>
</defs>
</svg>
