<svg width="25" height="25" viewBox="0 0 25 25" fill="none" xmlns="http://www.w3.org/2000/svg">
<path d="M12.4999 4.7403C10.9652 4.7403 9.46495 5.19539 8.18887 6.04804C6.9128 6.90068 5.91822 8.11258 5.33091 9.53048C4.7436 10.9484 4.58993 12.5086 4.88934 14.0138C5.18875 15.5191 5.92779 16.9017 7.013 17.9869C8.09821 19.0721 9.48085 19.8112 10.9861 20.1106C12.4913 20.41 14.0515 20.2563 15.4694 19.669C16.8873 19.0817 18.0992 18.0871 18.9519 16.811C19.8045 15.535 20.2596 14.0347 20.2596 12.5C20.2572 10.4427 19.4389 8.47041 17.9842 7.0157C16.5295 5.561 14.5572 4.74269 12.4999 4.7403ZM8.18899 14.6555C8.41765 14.6555 8.63696 14.5646 8.79865 14.4029C8.96034 14.2412 9.05118 14.0219 9.05118 13.7933C9.05118 13.6789 9.09659 13.5693 9.17744 13.4884C9.25829 13.4076 9.36794 13.3622 9.48227 13.3622C9.5966 13.3622 9.70625 13.4076 9.7871 13.4884C9.86794 13.5693 9.91336 13.6789 9.91336 13.7933C9.91336 14.2506 9.73169 14.6892 9.40831 15.0126C9.08492 15.336 8.64632 15.5176 8.18899 15.5176C7.73166 15.5176 7.29305 15.336 6.96967 15.0126C6.64629 14.6892 6.46461 14.2506 6.46461 13.7933V11.2067C6.46461 10.7494 6.64629 10.3108 6.96967 9.98739C7.29305 9.664 7.73166 9.48233 8.18899 9.48233C8.64632 9.48233 9.08492 9.664 9.40831 9.98739C9.73169 10.3108 9.91336 10.7494 9.91336 11.2067C9.91336 11.321 9.86794 11.4307 9.7871 11.5115C9.70625 11.5924 9.5966 11.6378 9.48227 11.6378C9.36794 11.6378 9.25829 11.5924 9.17744 11.5115C9.09659 11.4307 9.05118 11.321 9.05118 11.2067C9.05118 10.978 8.96034 10.7587 8.79865 10.597C8.63696 10.4354 8.41765 10.3445 8.18899 10.3445C7.96032 10.3445 7.74102 10.4354 7.57933 10.597C7.41764 10.7587 7.3268 10.978 7.3268 11.2067V13.7933C7.3268 14.0219 7.41764 14.2412 7.57933 14.4029C7.74102 14.5646 7.96032 14.6555 8.18899 14.6555ZM14.2243 15.0865C14.2243 15.2009 14.1789 15.3105 14.098 15.3914C14.0172 15.4722 13.9075 15.5176 13.7932 15.5176C13.6789 15.5176 13.5692 15.4722 13.4884 15.3914C13.4075 15.3105 13.3621 15.2009 13.3621 15.0865V12.2909L12.9039 13.5139C12.8732 13.5963 12.818 13.6673 12.7458 13.7174C12.6736 13.7675 12.5878 13.7944 12.4999 13.7944C12.412 13.7944 12.3262 13.7675 12.254 13.7174C12.1818 13.6673 12.1267 13.5963 12.096 13.5139L11.6377 12.2909V15.0865C11.6377 15.2009 11.5923 15.3105 11.5115 15.3914C11.4306 15.4722 11.321 15.5176 11.2066 15.5176C11.0923 15.5176 10.9827 15.4722 10.9018 15.3914C10.821 15.3105 10.7756 15.2009 10.7756 15.0865V9.91342C10.7753 9.81226 10.8106 9.71422 10.8753 9.63647C10.94 9.55872 11.03 9.50621 11.1296 9.48812C11.2291 9.47003 11.3318 9.48752 11.4198 9.53753C11.5077 9.58754 11.5752 9.66689 11.6106 9.76168L12.4999 12.1344L13.3893 9.7634C13.4246 9.66875 13.492 9.5895 13.5797 9.53947C13.6675 9.48945 13.77 9.47183 13.8694 9.48969C13.9689 9.50756 14.0589 9.55976 14.1237 9.63721C14.1886 9.71465 14.2242 9.81241 14.2243 9.91342V15.0865ZM18.5352 11.2067C18.5352 11.321 18.4898 11.4307 18.409 11.5115C18.3281 11.5924 18.2185 11.6378 18.1041 11.6378C17.9898 11.6378 17.8802 11.5924 17.7993 11.5115C17.7185 11.4307 17.6731 11.321 17.6731 11.2067C17.6731 11.0362 17.6225 10.8695 17.5277 10.7277C17.433 10.5859 17.2984 10.4754 17.1408 10.4101C16.9833 10.3449 16.8099 10.3278 16.6427 10.3611C16.4754 10.3944 16.3218 10.4765 16.2012 10.597C16.0806 10.7176 15.9985 10.8713 15.9652 11.0385C15.932 11.2057 15.949 11.3791 16.0143 11.5366C16.0796 11.6942 16.1901 11.8288 16.3319 11.9236C16.4736 12.0183 16.6403 12.0689 16.8109 12.0689C17.1519 12.0689 17.4853 12.17 17.7689 12.3595C18.0524 12.549 18.2735 12.8183 18.404 13.1334C18.5345 13.4485 18.5686 13.7952 18.5021 14.1297C18.4356 14.4642 18.2713 14.7714 18.0302 15.0126C17.789 15.2537 17.4818 15.418 17.1473 15.4845C16.8128 15.551 16.4661 15.5169 16.151 15.3864C15.8359 15.2559 15.5666 15.0349 15.3771 14.7513C15.1876 14.4677 15.0865 14.1343 15.0865 13.7933C15.0865 13.6789 15.1319 13.5693 15.2128 13.4884C15.2936 13.4076 15.4033 13.3622 15.5176 13.3622C15.6319 13.3622 15.7416 13.4076 15.8224 13.4884C15.9033 13.5693 15.9487 13.6789 15.9487 13.7933C15.9487 13.9638 15.9992 14.1305 16.094 14.2723C16.1887 14.4141 16.3234 14.5246 16.4809 14.5898C16.6385 14.6551 16.8118 14.6722 16.9791 14.6389C17.1463 14.6056 17.2999 14.5235 17.4205 14.4029C17.5411 14.2823 17.6232 14.1287 17.6565 13.9615C17.6898 13.7942 17.6727 13.6209 17.6074 13.4633C17.5422 13.3058 17.4317 13.1711 17.2899 13.0764C17.1481 12.9816 16.9814 12.9311 16.8109 12.9311C16.4698 12.9311 16.1364 12.8299 15.8529 12.6405C15.5693 12.451 15.3483 12.1817 15.2177 11.8666C15.0872 11.5515 15.0531 11.2048 15.1196 10.8703C15.1862 10.5358 15.3504 10.2285 15.5915 9.98739C15.8327 9.74623 16.14 9.582 16.4745 9.51546C16.809 9.44893 17.1557 9.48307 17.4708 9.61359C17.7858 9.7441 18.0552 9.96512 18.2446 10.2487C18.4341 10.5323 18.5352 10.8657 18.5352 11.2067Z" fill="url(#paint0_linear_2059_41)"/>
<path d="M24.9392 11.3279C24.918 11.162 24.8435 11.0075 24.7269 10.8877C24.6102 10.7679 24.4578 10.6892 24.2926 10.6635L22.6307 10.3919C22.3672 9.12233 21.8659 7.914 21.1533 6.83068L22.1341 5.4598C22.2334 5.32477 22.2863 5.1612 22.2849 4.99358C22.2835 4.82596 22.2279 4.6633 22.1263 4.52994C21.8801 4.22602 21.6167 3.93643 21.3374 3.66257C21.0618 3.38518 20.7723 3.12188 20.4701 2.87367C20.3367 2.77212 20.174 2.71648 20.0064 2.71508C19.8388 2.71368 19.6752 2.7666 19.5402 2.86591L18.1693 3.84665C17.086 3.13406 15.8777 2.63279 14.608 2.36929L14.336 0.709151C14.3105 0.543926 14.232 0.391484 14.1122 0.274835C13.9924 0.158185 13.838 0.0836604 13.6721 0.0625098C12.8929 -0.0208366 12.1071 -0.0208366 11.3279 0.0625098C11.162 0.0836604 11.0076 0.158185 10.8878 0.274835C10.768 0.391484 10.6895 0.543926 10.664 0.709151L10.3919 2.36929C9.12233 2.63279 7.914 3.13406 6.83068 3.84665L5.4598 2.86591C5.32477 2.7666 5.1612 2.71368 4.99358 2.71508C4.82596 2.71648 4.6633 2.77212 4.52994 2.87367C4.22772 3.12188 3.93824 3.38518 3.66257 3.66257C3.38329 3.93643 3.1199 4.22602 2.87367 4.52994C2.77212 4.6633 2.71648 4.82596 2.71508 4.99358C2.71368 5.1612 2.7666 5.32477 2.86591 5.4598L3.84665 6.83068C3.13406 7.914 2.63279 9.12233 2.36929 10.3919L0.709151 10.6635C0.543919 10.6892 0.391504 10.7679 0.274872 10.8877C0.158239 11.0075 0.0837086 11.162 0.0625098 11.3279C-0.0208366 12.1071 -0.0208366 12.8929 0.0625098 13.6721C0.0849913 13.8375 0.159955 13.9912 0.276366 14.1107C0.392776 14.2302 0.544482 14.3092 0.709151 14.336L2.36929 14.608C2.63279 15.8777 3.13406 17.086 3.84665 18.1693L2.86591 19.5402C2.7666 19.6752 2.71368 19.8388 2.71508 20.0064C2.71648 20.174 2.77212 20.3367 2.87367 20.4701C3.12188 20.7723 3.38518 21.0618 3.66257 21.3374C3.93711 21.616 4.22651 21.8795 4.5295 22.1268C4.66213 22.23 4.82506 22.2867 4.99313 22.2881C5.16119 22.2895 5.32504 22.2355 5.45937 22.1345L6.83025 21.1538C7.91373 21.8663 9.12221 22.3674 10.3919 22.6307L10.664 24.2908C10.6895 24.4561 10.768 24.6085 10.8878 24.7252C11.0076 24.8418 11.162 24.9163 11.3279 24.9375C12.1071 25.0208 12.8929 25.0208 13.6721 24.9375C13.838 24.9163 13.9924 24.8418 14.1122 24.7252C14.232 24.6085 14.3105 24.4561 14.336 24.2908L14.608 22.6307C15.8777 22.3672 17.086 21.8659 18.1693 21.1533L19.5402 22.1341C19.6745 22.2351 19.8384 22.2891 20.0064 22.2877C20.1745 22.2863 20.3374 22.2296 20.4701 22.1263C20.7732 21.8792 21.0627 21.6158 21.3374 21.3374C21.615 21.0619 21.8784 20.7726 22.1268 20.4705C22.2283 20.3371 22.284 20.1745 22.2854 20.0068C22.2868 19.8392 22.2338 19.6757 22.1345 19.5406L21.1538 18.1697C21.8663 17.0863 22.3674 15.8778 22.6307 14.608L24.2908 14.336C24.4555 14.3092 24.6072 14.2302 24.7236 14.1107C24.84 13.9912 24.915 13.8375 24.9375 13.6721C25.0208 12.8929 25.0208 12.1071 24.9375 11.3279H24.9392ZM12.5 21.1219C10.7948 21.1219 9.1278 20.6162 7.70994 19.6688C6.29208 18.7214 5.18699 17.3749 4.53442 15.7994C3.88185 14.224 3.71111 12.4904 4.04379 10.818C4.37647 9.14547 5.19762 7.6092 6.40341 6.40341C7.6092 5.19762 9.14547 4.37647 10.818 4.04379C12.4904 3.71111 14.224 3.88185 15.7994 4.53442C17.3749 5.18699 18.7214 6.29208 19.6688 7.70994C20.6162 9.1278 21.1219 10.7948 21.1219 12.5C21.1193 14.7859 20.21 16.9773 18.5937 18.5937C16.9773 20.21 14.7859 21.1193 12.5 21.1219Z" fill="url(#paint1_linear_2059_41)"/>
<defs>
<linearGradient id="paint0_linear_2059_41" x1="0" y1="12.5" x2="25" y2="12.5" gradientUnits="userSpaceOnUse">
<stop stop-color="#EA32D9"/>
<stop offset="1" stop-color="#004BED"/>
</linearGradient>
<linearGradient id="paint1_linear_2059_41" x1="0" y1="12.5" x2="25" y2="12.5" gradientUnits="userSpaceOnUse">
<stop stop-color="#EA32D9"/>
<stop offset="1" stop-color="#004BED"/>
</linearGradient>
</defs>
</svg>
