<svg width="25" height="25" viewBox="0 0 25 25" fill="none" xmlns="http://www.w3.org/2000/svg">
<path d="M7.37294 20.4677C7.37294 18.8589 6.05904 17.5507 4.4433 17.5507C2.82755 17.5507 1.51365 18.8589 1.51365 20.4677V21.9262C1.51365 22.7302 0.807508 23.4333 0 23.4333V24.8919H2.97847C5.40173 24.8919 7.37294 22.8805 7.37294 20.4677ZM12.2588 6.10621C11.8679 6.21088 11.6356 6.60944 11.7409 6.99925C11.8419 7.37428 12.2284 7.62096 12.6379 7.51483C13.0314 7.40943 13.2599 7.00893 13.1557 6.62179C13.0499 6.23057 12.6454 6.00241 12.2588 6.10621ZM8.11536 11.6404C8.50403 11.7431 8.90617 11.5179 9.01227 11.1248C9.11803 10.7319 8.88264 10.3355 8.49514 10.2318C8.28738 10.176 8.2305 10.218 8.08358 10.2657C8.09188 10.7052 8.09769 11.1612 8.10076 11.6333C8.10613 11.6348 8.10989 11.639 8.11536 11.6404ZM16.1883 17.8918C16.0824 17.4996 15.6782 17.273 15.2914 17.3769C14.8938 17.4834 14.6702 17.8873 14.7736 18.2699C14.8781 18.658 15.2757 18.8874 15.6705 18.7855C16.0614 18.6808 16.2937 18.2816 16.1883 17.8918ZM18.6259 8.83663C18.9113 8.55178 18.9113 8.08885 18.6259 7.80469C18.3404 7.52038 17.8763 7.51921 17.5895 7.80469C17.3041 8.08885 17.3041 8.55247 17.5902 8.83663C17.8749 9.12007 18.3398 9.12007 18.6259 8.83663Z" fill="url(#paint0_linear_2059_33)"/>
<path d="M14.0078 1.46866C11.6018 1.55501 9.39324 2.50201 7.63281 3.70431C7.83012 5.04167 7.96953 6.70626 8.04374 8.76495C8.31796 8.73238 8.59842 8.74964 8.87308 8.82319C10.0468 9.13565 10.7425 10.3337 10.4273 11.5023C10.1616 12.4908 9.26477 13.1246 8.30873 13.1246C8.23837 13.1246 8.16825 13.1036 8.09789 13.0969C8.08906 14.2633 8.06249 15.4174 8.01196 16.5195C8.76214 16.8298 9.34846 17.2432 9.73132 17.7786C10.5066 18.8633 10.3 20.1352 10.2184 20.4998C9.94679 21.711 10.664 22.944 11.8928 23.1797C12.5802 23.3111 13.2785 23.3774 13.9785 23.3777C20.0023 23.3777 25.049 18.5057 24.9999 12.3584C24.9486 6.12359 19.5299 1.2615 14.0078 1.46866ZM16.5534 6.77355C17.4117 5.92037 18.805 5.92037 19.6618 6.77355C20.5187 7.62673 20.5187 9.01474 19.6618 9.86787C18.8051 10.7195 17.4109 10.7204 16.5541 9.8686C15.6979 9.0147 15.6979 7.62673 16.5534 6.77355ZM10.3264 7.37601C10.0147 6.22311 10.6946 5.01303 11.8799 4.69756C13.045 4.38636 14.256 5.07857 14.5707 6.24435C14.8852 7.41063 14.1911 8.61059 13.0172 8.92349C11.8462 9.23595 10.6411 8.54773 10.3264 7.37601ZM16.0498 20.1943C14.8791 20.5065 13.6731 19.8123 13.3591 18.6475C13.0445 17.4812 13.7386 16.2812 14.9126 15.9683C16.0915 15.6561 17.2901 16.3495 17.6033 17.5159C17.9188 18.6839 17.2213 19.8824 16.0498 20.1943ZM21.7467 14.5219C21.433 15.6905 20.2269 16.3822 19.056 16.0687C17.8854 15.7567 17.1866 14.5604 17.5025 13.3895C17.8195 12.2102 19.0327 11.5331 20.1932 11.8427C21.3641 12.1554 22.0608 13.3575 21.7467 14.5219Z" fill="url(#paint1_linear_2059_33)"/>
<path d="M19.814 13.2514C19.4303 13.1484 19.0241 13.3709 18.917 13.767C18.8113 14.1599 19.0467 14.5563 19.4342 14.66C19.8352 14.7632 20.2279 14.5291 20.3318 14.1444C20.4362 13.7563 20.2037 13.3554 19.814 13.2514ZM6.63172 13.1752C6.63377 12.9312 6.64056 12.691 6.64056 12.4459C6.64056 6.79067 6.25932 0 4.44333 0C2.62734 0 2.24609 6.79067 2.24609 12.4459C2.24609 12.691 2.25288 12.9312 2.25493 13.1752H6.63172ZM4.44333 16.0922C5.2065 16.0922 5.91406 16.3043 6.54008 16.6464C6.57221 15.9758 6.59644 15.3048 6.61278 14.6337H2.27388C2.29077 15.3177 2.31489 15.9919 2.34658 16.6464C2.9726 16.3042 3.68016 16.0922 4.44333 16.0922Z" fill="url(#paint2_linear_2059_33)"/>
<defs>
<linearGradient id="paint0_linear_2059_33" x1="0" y1="12.4459" x2="25.0003" y2="12.4459" gradientUnits="userSpaceOnUse">
<stop stop-color="#EA32D9"/>
<stop offset="1" stop-color="#004BED"/>
</linearGradient>
<linearGradient id="paint1_linear_2059_33" x1="0" y1="12.4459" x2="25.0003" y2="12.4459" gradientUnits="userSpaceOnUse">
<stop stop-color="#EA32D9"/>
<stop offset="1" stop-color="#004BED"/>
</linearGradient>
<linearGradient id="paint2_linear_2059_33" x1="0" y1="12.4459" x2="25.0003" y2="12.4459" gradientUnits="userSpaceOnUse">
<stop stop-color="#EA32D9"/>
<stop offset="1" stop-color="#004BED"/>
</linearGradient>
</defs>
</svg>
