<svg width="25" height="25" viewBox="0 0 25 25" fill="none" xmlns="http://www.w3.org/2000/svg">
<path d="M5.00983 19.36C3.39253 17.6043 2.45032 15.3319 2.35073 12.9469C1.80104 12.9558 0.538523 12.9402 0 12.9469C0.100022 15.9555 1.28957 18.8254 3.34734 21.0225C3.72989 20.6489 4.61923 19.7444 5.00983 19.36ZM3.97748 21.6527C6.17464 23.7104 9.04448 24.8999 12.0531 25C12.0593 24.4659 12.0486 23.1963 12.0531 22.6493C9.66808 22.5497 7.39568 21.6075 5.63997 19.9902L3.97748 21.6527ZM19.36 19.9902C17.6043 21.6075 15.3319 22.5497 12.9469 22.6493C12.9558 23.199 12.9402 24.4615 12.9469 25C15.9555 24.9 18.8254 23.7104 21.0225 21.6527C20.6489 21.2701 19.7444 20.3808 19.36 19.9902ZM22.6493 12.9469C22.5497 15.3319 21.6075 17.6043 19.9902 19.36C20.3857 19.743 21.267 20.6458 21.6527 21.0225C23.7104 18.8254 24.9 15.9555 25 12.9469C24.4659 12.9406 23.1963 12.9514 22.6493 12.9469ZM19.9902 5.63997C21.6075 7.39568 22.5497 9.66808 22.6493 12.0531C23.199 12.0442 24.4615 12.0598 25 12.0531C24.9 9.04447 23.7104 6.17462 21.6527 3.97748C21.2701 4.35109 20.3808 5.25563 19.9902 5.63997ZM21.0225 3.34734C18.8254 1.28961 15.9555 0.100062 12.9469 0C12.9406 0.534054 12.9514 1.80372 12.9469 2.35073C15.3319 2.45032 17.6043 3.39253 19.36 5.00983L21.0225 3.34734ZM5.63997 5.00983C7.39568 3.39253 9.66808 2.45032 12.0531 2.35073C12.0442 1.80104 12.0598 0.538523 12.0531 0C9.04448 0.100062 6.17464 1.28961 3.97748 3.34734C4.35109 3.72989 5.25563 4.61923 5.63997 5.00983ZM2.35073 12.0531C2.45032 9.66808 3.39253 7.39568 5.00983 5.63997C4.61432 5.25697 3.73302 4.35422 3.34734 3.97748C1.28957 6.17462 0.100022 9.04447 0 12.0531C0.534054 12.0593 1.80372 12.0486 2.35073 12.0531Z" fill="url(#paint0_linear_2059_51)"/>
<path d="M21.7693 12.5C21.7672 10.0424 20.79 7.68607 19.0522 5.94828C17.3144 4.21049 14.958 3.23327 12.5004 3.23114C0.203792 3.73793 0.207367 21.2639 12.5004 21.7689C14.958 21.7667 17.3144 20.7895 19.0522 19.0517C20.79 17.3139 21.7672 14.9576 21.7693 12.5ZM13.7563 12.9514H11.8882V14.3725H13.8903C14.0089 14.3725 14.1225 14.4196 14.2063 14.5034C14.2902 14.5873 14.3372 14.7009 14.3372 14.8194C14.3372 14.938 14.2902 15.0516 14.2063 15.1355C14.1225 15.2193 14.0089 15.2664 13.8903 15.2664H11.8882V17.13C11.8882 17.2485 11.8411 17.3622 11.7573 17.446C11.6735 17.5298 11.5598 17.5769 11.4413 17.5769C11.3228 17.5769 11.2091 17.5298 11.1253 17.446C11.0415 17.3622 10.9944 17.2485 10.9944 17.13V15.2664H8.93413C8.8156 15.2664 8.70193 15.2193 8.61812 15.1355C8.5343 15.0516 8.48722 14.938 8.48722 14.8194C8.48722 14.7009 8.5343 14.5873 8.61812 14.5034C8.70193 14.4196 8.8156 14.3725 8.93413 14.3725H10.9944V12.9514H8.93413C8.8156 12.9514 8.70193 12.9043 8.61812 12.8205C8.5343 12.7367 8.48722 12.623 8.48722 12.5045C8.48722 12.3859 8.5343 12.2723 8.61812 12.1885C8.70193 12.1046 8.8156 12.0576 8.93413 12.0576H10.9944V7.87004C10.9947 7.75162 11.0419 7.63815 11.1257 7.55442C11.2094 7.47068 11.3229 7.42349 11.4413 7.42313H13.7518C17.4026 7.55452 17.4093 12.8119 13.7563 12.9514Z" fill="url(#paint1_linear_2059_51)"/>
<path d="M13.7503 8.31696H11.8867V12.0576H13.7548C14.0004 12.0573 14.2436 12.0086 14.4704 11.9143C14.6972 11.8201 14.9032 11.6821 15.0766 11.5082C15.2501 11.3343 15.3876 11.128 15.4813 10.9009C15.5751 10.6739 15.6232 10.4306 15.6229 10.185C15.6226 9.93942 15.5739 9.69627 15.4796 9.46947C15.3854 9.24266 15.2474 9.03664 15.0735 8.86318C14.8996 8.68971 14.6933 8.55219 14.4662 8.45847C14.2392 8.36475 13.9959 8.31666 13.7503 8.31696Z" fill="url(#paint2_linear_2059_51)"/>
<defs>
<linearGradient id="paint0_linear_2059_51" x1="0" y1="12.5" x2="25" y2="12.5" gradientUnits="userSpaceOnUse">
<stop stop-color="#EA32D9"/>
<stop offset="1" stop-color="#004BED"/>
</linearGradient>
<linearGradient id="paint1_linear_2059_51" x1="0" y1="12.5" x2="25" y2="12.5" gradientUnits="userSpaceOnUse">
<stop stop-color="#EA32D9"/>
<stop offset="1" stop-color="#004BED"/>
</linearGradient>
<linearGradient id="paint2_linear_2059_51" x1="0" y1="12.5" x2="25" y2="12.5" gradientUnits="userSpaceOnUse">
<stop stop-color="#EA32D9"/>
<stop offset="1" stop-color="#004BED"/>
</linearGradient>
</defs>
</svg>
