<svg width="25" height="25" viewBox="0 0 25 25" fill="none" xmlns="http://www.w3.org/2000/svg">
<path d="M23.8415 0H0.670739C0.333969 0 0.0609816 0.272987 0.0609816 0.609758V4.2683C0.0609816 4.60507 0.333969 4.87806 0.670739 4.87806H23.8415C24.1782 4.87806 24.4512 4.60507 24.4512 4.2683V0.609758C24.4512 0.272987 24.1782 0 23.8415 0ZM23.8415 6.70733H18.3536C18.0169 6.70733 17.7439 6.98032 17.7439 7.31709V10.9756C17.7439 11.3124 18.0169 11.5854 18.3536 11.5854H23.8415C24.1782 11.5854 24.4512 11.3124 24.4512 10.9756V7.31709C24.4512 6.98032 24.1782 6.70733 23.8415 6.70733ZM23.8415 13.4147H18.3536C18.0169 13.4147 17.7439 13.6877 17.7439 14.0244V17.683C17.7439 18.0197 18.0169 18.2927 18.3536 18.2927H23.8415C24.1782 18.2927 24.4512 18.0197 24.4512 17.683V14.0244C24.4512 13.6877 24.1782 13.4147 23.8415 13.4147ZM23.8415 20.1219H18.3536C18.0169 20.1219 17.7439 20.3949 17.7439 20.7317V24.3902C17.7439 24.727 18.0169 25 18.3536 25H23.8415C24.1782 25 24.4512 24.727 24.4512 24.3902V20.7317C24.4512 20.3949 24.1782 20.1219 23.8415 20.1219ZM15 6.70733H0.670739C0.333969 6.70733 0.0609816 6.98032 0.0609816 7.31709V17.6829C0.0609816 18.0197 0.333969 18.2927 0.670739 18.2927H15C15.3368 18.2927 15.6098 18.0197 15.6098 17.6829V7.31709C15.6098 6.98032 15.3368 6.70733 15 6.70733ZM0.609757 21.9512H9.87803C10.2148 21.9512 10.4878 21.6782 10.4878 21.3415C10.4878 21.0047 10.2148 20.7317 9.87803 20.7317H0.609757C0.272987 20.7317 0 21.0047 0 21.3415C0 21.6782 0.272987 21.9512 0.609757 21.9512ZM14.7561 23.7805H0.609757C0.272987 23.7805 0 24.0535 0 24.3902C0 24.727 0.272987 25 0.609757 25H14.7561C15.0929 25 15.3658 24.727 15.3658 24.3902C15.3658 24.0535 15.0929 23.7805 14.7561 23.7805Z" fill="url(#paint0_linear_2059_29)"/>
<defs>
<linearGradient id="paint0_linear_2059_29" x1="0" y1="12.5" x2="24.4512" y2="12.5" gradientUnits="userSpaceOnUse">
<stop stop-color="#EA32D9"/>
<stop offset="1" stop-color="#004BED"/>
</linearGradient>
</defs>
</svg>
