<svg width="154" height="61" viewBox="0 0 154 61" fill="none" xmlns="http://www.w3.org/2000/svg">
<path d="M22.2413 48.2722C20.8683 49.4545 19.2736 49.9864 17.4572 49.868C15.6443 49.7011 14.142 48.9257 12.9504 47.5419L0 32.5018L2.48707 30.3603L4.64547 32.867L9.61961 28.5839L11.778 31.0906L6.80387 35.3736L15.4375 45.4003C16.0445 46.1053 16.7948 46.5051 17.6883 46.5997C18.5852 46.6459 19.3835 46.3678 20.0829 45.7655L25.0571 41.4824L27.2155 43.9891L22.2413 48.2722Z" fill="white"/>
<path d="M36.5598 31.5779C37.2334 30.9979 37.6139 30.261 37.7015 29.3671C37.7665 28.4472 37.4955 27.6347 36.8885 26.9297L30.4133 19.4097C29.8287 18.7308 29.0767 18.3552 28.1573 18.2829C27.2379 18.2107 26.4414 18.4645 25.7678 19.0445L20.7936 23.3276C20.0942 23.9299 19.7119 24.691 19.6468 25.611C19.6077 26.5086 19.8804 27.2969 20.465 27.9758L26.9402 35.4958C27.5472 36.2008 28.2975 36.6006 29.191 36.6952C30.0879 36.7413 30.8862 36.4632 31.5857 35.8609L36.5598 31.5779ZM33.744 38.3676C32.371 39.5499 30.7763 40.0818 28.9599 39.9634C27.147 39.7966 25.6447 39.0212 24.4531 37.6373L17.9779 30.1173C16.8088 28.7595 16.2763 27.1718 16.3805 25.3542C16.5106 23.5143 17.2622 22.0032 18.6353 20.8209L23.6094 16.5379C24.9566 15.3779 26.5496 14.8701 28.3884 15.0147C30.2272 15.1592 31.7312 15.9104 32.9003 17.2682L39.3755 24.7882C40.5672 26.1721 41.0979 27.784 40.9678 29.6239C40.8152 31.4377 40.0654 32.9246 38.7182 34.0846L33.744 38.3676Z" fill="white"/>
<path d="M52.6546 35.18L35.3874 15.1266C34.2183 13.7689 33.6858 12.1812 33.79 10.3636C33.9201 8.52365 34.6717 7.01255 36.0448 5.83025L41.0189 1.5472C42.3661 0.387212 43.9591 -0.120517 45.7979 0.0240218C47.6367 0.168561 49.1407 0.919723 50.3098 2.2775L56.785 9.79752C57.9767 11.1814 58.5074 12.7933 58.3773 14.6332C58.2247 16.447 57.4749 17.9339 56.1277 19.0939L51.1536 23.377L48.9952 20.8703L53.9693 16.5872C54.6429 16.0072 55.0234 15.2703 55.111 14.3765C55.176 13.4565 54.905 12.644 54.298 11.939L47.8228 4.41903C47.2382 3.74014 46.4862 3.36455 45.5668 3.29228C44.6474 3.22002 43.8509 3.47388 43.1773 4.05388L38.2032 8.33692C37.5037 8.93922 37.1214 9.70035 37.0563 10.6203C37.0172 11.518 37.2899 12.3062 37.8745 12.9851L55.1417 33.0385L52.6546 35.18Z" fill="white"/>
<path fill-rule="evenodd" clip-rule="evenodd" d="M81.6369 2.22143L153.944 61H9.32993L81.6369 2.22143ZM73.7065 39.5412C73.7065 43.6634 70.3647 47.0051 66.2425 47.0051C62.1203 47.0051 58.7786 43.6634 58.7786 39.5412C58.7786 35.4189 62.1203 32.0772 66.2425 32.0772C70.3647 32.0772 73.7065 35.4189 73.7065 39.5412ZM97.9643 47.0051C102.087 47.0051 105.428 43.6634 105.428 39.5412C105.428 35.4189 102.087 32.0772 97.9643 32.0772C93.8421 32.0772 90.5003 35.4189 90.5003 39.5412C90.5003 43.6634 93.8421 47.0051 97.9643 47.0051Z" fill="white"/>
</svg>
