<svg width="250" height="113" viewBox="0 0 250 113" fill="none" xmlns="http://www.w3.org/2000/svg">
<g clip-path="url(#clip0_4161_109)">
<path d="M14.315 64.6872C11.8877 64.6872 9.62595 64.1902 7.52967 63.1961C5.43339 62.2021 3.73246 60.7846 2.43607 58.9346C1.13969 57.0845 0.496094 54.8939 0.496094 52.3444C0.496094 49.307 1.24083 46.8218 2.73029 44.889C4.21975 42.9561 6.27006 41.5202 8.89961 40.5814C11.52 39.6426 14.4529 39.1731 17.7077 39.1731H27.4719C27.4719 37.2955 27.1869 35.7216 26.6077 34.4514C26.0284 33.1812 25.1734 32.2056 24.0425 31.5152C22.9116 30.8249 21.5141 30.4844 19.8591 30.4844C17.9283 30.4844 16.1998 30.917 14.692 31.773C13.1749 32.629 12.2555 34.0464 11.9245 36.0345H1.32357C1.5994 33.0523 2.61996 30.4844 4.38525 28.3306C6.15054 26.1768 8.41231 24.5201 11.1706 23.3603C13.9288 22.2006 16.8802 21.6207 20.0246 21.6207C23.8862 21.6207 27.1501 22.3387 29.8348 23.7745C32.5104 25.2104 34.5607 27.2445 36.0042 29.8585C37.4385 32.4817 38.1556 35.5927 38.1556 39.1731V51.6817C38.2659 52.8966 38.7073 53.725 39.4796 54.1668C40.2519 54.6086 41.2724 54.8295 42.5413 54.8295V63.6931C39.9485 63.6931 37.7878 63.4446 36.0501 62.9476C34.3124 62.4506 32.8873 61.7234 31.7932 60.7478C30.6899 59.7814 29.7521 58.5572 28.9798 57.0661C27.711 59.2199 25.7342 61.0331 23.0587 62.4966C20.3832 63.9601 17.4686 64.6872 14.3242 64.6872H14.315ZM17.3767 56.1457C19.1971 56.1457 20.8613 55.7315 22.3783 54.9031C23.8954 54.0747 25.1182 52.915 26.056 51.4239C26.9938 49.9329 27.4627 48.2209 27.4627 46.288V45.9566H18.3605C17.1468 45.9566 15.9884 46.1407 14.885 46.4905C13.7817 46.8494 12.8991 47.4017 12.2371 48.1472C11.5751 48.8928 11.2441 49.9052 11.2441 51.1754C11.2441 52.8874 11.8326 54.1484 13.0278 54.9399C14.2139 55.7407 15.6574 56.1365 17.3767 56.1365V56.1457Z" fill="black"/>
<path d="M61.7301 63.6931C57.3168 63.6931 53.9885 62.6162 51.7543 60.4624C49.5201 58.3086 48.3984 55.078 48.3984 50.7704V12.5822H58.9902V22.6055H68.3407V31.4692H58.9902V50.8532C58.9902 52.3995 59.4039 53.4488 60.2314 54.0011C61.0589 54.5533 62.1346 54.8295 63.4586 54.8295H68.3407V63.6931H61.7209H61.7301Z" fill="black"/>
<path d="M93.5873 64.6872C89.4499 64.6872 85.7722 63.7852 82.5358 61.9995C79.3086 60.2047 76.7894 57.6828 74.969 54.4153C73.1485 51.157 72.2383 47.4017 72.2383 43.1493C72.2383 38.6761 73.2129 34.8195 75.1804 31.5889C77.1388 28.3582 79.7592 25.8915 83.0415 24.1703C86.3238 22.4583 89.9555 21.6023 93.9183 21.6023C97.881 21.6023 101.752 22.5043 105.006 24.2991C108.261 26.0939 110.845 28.5975 112.748 31.8006C114.651 35.0036 115.598 38.7865 115.598 43.1493C115.598 47.5121 114.66 50.9913 112.785 54.2496C110.909 57.5079 108.326 60.0667 105.043 61.9167C101.761 63.7667 97.9361 64.6872 93.5873 64.6872ZM93.7528 55.483C95.9594 55.483 97.8718 54.9215 99.5083 53.7894C101.136 52.6573 102.414 51.1386 103.361 49.2333C104.299 47.328 104.767 45.2479 104.767 42.9837C104.767 40.3881 104.253 38.1791 103.232 36.3566C102.211 34.5342 100.878 33.1536 99.2233 32.2147C97.5684 31.2759 95.7479 30.8065 93.762 30.8065C91.6105 30.8065 89.7165 31.3311 88.0983 32.3804C86.4709 33.4297 85.2021 34.884 84.2919 36.734C83.3817 38.5841 82.9312 40.7286 82.9312 43.1585C82.9312 45.5884 83.4093 47.7422 84.3746 49.6199C85.34 51.4975 86.6548 52.9518 88.3006 53.9643C89.9555 54.9859 91.776 55.5014 93.762 55.5014L93.7528 55.483Z" fill="black"/>
<path d="M131.321 63.693L115.93 22.6055H127.183L137.775 54.1667L148.284 22.6055H159.455L144.064 63.693H131.321Z" fill="black"/>
<path d="M180.721 64.6872C176.418 64.6872 172.703 63.7483 169.587 61.8707C166.47 59.993 164.052 57.4251 162.342 54.1668C160.631 50.9085 159.776 47.236 159.776 43.1493C159.776 38.7865 160.659 35.0036 162.424 31.8006C164.19 28.5975 166.644 26.1032 169.789 24.2991C172.933 22.5043 176.574 21.6023 180.712 21.6023C184.849 21.6023 188.37 22.4859 191.432 24.2531C194.494 26.0203 196.893 28.4502 198.631 31.5428C200.369 34.6354 201.233 38.1975 201.233 42.2289C201.233 42.9468 201.206 43.6556 201.15 44.3367C201.095 45.027 201.012 45.6805 200.902 46.288H170.451C170.616 48.2209 171.122 49.9236 171.986 51.3779C172.841 52.8414 174 53.9735 175.462 54.7742C176.924 55.575 178.588 55.9708 180.463 55.9708C182.339 55.9708 184.067 55.5566 185.474 54.7282C186.881 53.8998 188.003 52.6297 188.83 50.9177H200.167C199.394 53.3476 198.153 55.6118 196.443 57.7104C194.733 59.8089 192.563 61.4933 189.952 62.7635C187.331 64.0337 184.251 64.6688 180.721 64.6688V64.6872ZM170.543 39.256H190.32C190.264 36.4947 189.253 34.3133 187.304 32.7118C185.345 31.1102 183.038 30.3095 180.39 30.3095C178.128 30.3095 176.032 31.0182 174.101 32.4172C172.17 33.8255 170.984 36.0989 170.543 39.256Z" fill="black"/>
<path d="M226.481 64.6872C222.178 64.6872 218.463 63.7483 215.346 61.8707C212.23 59.993 209.811 57.4251 208.101 54.1668C206.391 50.9085 205.536 47.236 205.536 43.1493C205.536 38.7865 206.419 35.0036 208.184 31.8006C209.949 28.5975 212.404 26.1032 215.549 24.2991C218.693 22.5043 222.334 21.6023 226.471 21.6023C230.609 21.6023 234.13 22.4859 237.192 24.2531C240.254 26.0203 242.653 28.4502 244.391 31.5428C246.129 34.6354 246.993 38.1975 246.993 42.2289C246.993 42.9468 246.965 43.6556 246.91 44.3367C246.855 45.027 246.772 45.6805 246.662 46.288H216.211C216.376 48.2209 216.882 49.9236 217.746 51.3779C218.601 52.8414 219.76 53.9735 221.221 54.7742C222.683 55.575 224.348 55.9708 226.223 55.9708C228.099 55.9708 229.827 55.5566 231.234 54.7282C232.641 53.8998 233.762 52.6297 234.59 50.9177H245.926C245.154 53.3476 243.913 55.6118 242.203 57.7104C240.493 59.8089 238.323 61.4933 235.712 62.7635C233.091 64.0337 230.011 64.6688 226.481 64.6688V64.6872ZM216.303 39.256H236.079C236.024 36.4947 235.013 34.3133 233.064 32.7118C231.105 31.1102 228.798 30.3095 226.15 30.3095C223.888 30.3095 221.792 31.0182 219.861 32.4172C217.93 33.8255 216.744 36.0989 216.303 39.256Z" fill="black"/>
<path d="M250 75.318H0V84.5222H250V75.318Z" fill="#00A0D2"/>
<path d="M5.70042 106.226L3.8248 105.848C2.85021 105.646 2.14225 105.342 1.71012 104.937C1.2688 104.532 1.04814 103.961 1.04814 103.216C1.04814 102.305 1.38833 101.577 2.0687 101.034C2.74907 100.501 3.66849 100.234 4.81777 100.234C5.66364 100.234 6.39918 100.363 7.05197 100.611C7.69556 100.86 8.32996 101.283 8.94598 101.872L9.32294 101.191C8.77129 100.62 8.1185 100.188 7.35538 99.9023C6.59226 99.6078 5.74639 99.4697 4.81777 99.4697C3.88915 99.4697 3.10765 99.6262 2.41808 99.9391C1.72851 100.252 1.19525 100.694 0.799897 101.255C0.41374 101.817 0.220661 102.48 0.220661 103.225C0.220661 104.182 0.514876 104.928 1.10331 105.462C1.69174 105.996 2.59277 106.391 3.80641 106.64L5.66364 107.017C6.73936 107.229 7.49329 107.523 7.94381 107.901C8.38513 108.278 8.61498 108.812 8.61498 109.512C8.61498 110.34 8.29319 110.993 7.66798 111.5C7.03358 111.997 6.10496 112.236 4.88213 112.236C4.22015 112.236 3.63172 112.181 3.12603 112.079C2.62035 111.969 2.15145 111.803 1.72851 111.573C1.30558 111.343 0.864257 111.049 0.395351 110.68L0 111.362C0.625207 111.895 1.33316 112.31 2.11467 112.595C2.90537 112.88 3.8248 113.018 4.89132 113.018C5.82914 113.018 6.63823 112.871 7.3186 112.577C7.99897 112.282 8.52304 111.868 8.88162 111.334C9.24019 110.8 9.42408 110.193 9.42408 109.502C9.42408 108.573 9.12986 107.864 8.53224 107.367C7.93461 106.87 6.98761 106.493 5.69122 106.235L5.70042 106.226Z" fill="black"/>
<path d="M17.5519 100.234C18.407 100.234 19.1425 100.363 19.7769 100.639C20.4021 100.906 21.0274 101.338 21.6434 101.927L22.0571 101.265C21.4963 100.676 20.8435 100.225 20.1171 99.9208C19.3816 99.6078 18.5357 99.4606 17.5703 99.4606C16.2923 99.4606 15.2166 99.7275 14.334 100.271C13.4513 100.814 12.7801 101.596 12.3204 102.599C11.8607 103.602 11.6309 104.808 11.6309 106.216C11.6309 107.625 11.8607 108.83 12.3204 109.834C12.7801 110.846 13.4605 111.629 14.334 112.172C15.2166 112.715 16.2923 112.991 17.5703 112.991C18.5265 112.991 19.3632 112.834 20.1079 112.531C20.8435 112.218 21.4963 111.776 22.0571 111.187L21.6434 110.533C21.0274 111.122 20.4021 111.546 19.7769 111.813C19.1425 112.08 18.407 112.218 17.5519 112.218C15.8878 112.218 14.6282 111.693 13.7639 110.644C12.8997 109.594 12.4675 108.113 12.4675 106.216C12.4675 104.32 12.8997 102.839 13.7639 101.789C14.6282 100.749 15.8878 100.225 17.5519 100.225V100.234Z" fill="black"/>
<path d="M25.7897 99.6171H24.999V112.853H25.7897V99.6171Z" fill="black"/>
<path d="M29.4219 112.853H37.4576V112.116H30.2126V106.502H37.0439V105.775H30.2126V100.344H37.4576V99.6171H29.4219V112.853Z" fill="black"/>
<path d="M49.8322 111.537L41.0149 99.6171H40.3438V112.853H41.0701V100.906L49.9057 112.853H50.5677V99.6171H49.8322V111.537Z" fill="black"/>
<path d="M59.5881 100.234C60.4431 100.234 61.1787 100.363 61.8131 100.639C62.4383 100.906 63.0635 101.338 63.6795 101.927L64.0932 101.265C63.5324 100.676 62.8796 100.225 62.1533 99.9208C61.4177 99.6078 60.5719 99.4606 59.6065 99.4606C58.3285 99.4606 57.2527 99.7275 56.3701 100.271C55.4874 100.814 54.8163 101.596 54.3566 102.599C53.8968 103.602 53.667 104.808 53.667 106.216C53.667 107.625 53.8968 108.83 54.3566 109.834C54.8163 110.846 55.4966 111.629 56.3701 112.172C57.2527 112.715 58.3285 112.991 59.6065 112.991C60.5627 112.991 61.3993 112.834 62.1441 112.531C62.8796 112.218 63.5324 111.776 64.0932 111.187L63.6795 110.533C63.0635 111.122 62.4383 111.546 61.8131 111.813C61.1787 112.08 60.4431 112.218 59.5881 112.218C57.9239 112.218 56.6643 111.693 55.8001 110.644C54.9358 109.594 54.5037 108.113 54.5037 106.216C54.5037 104.32 54.9358 102.839 55.8001 101.789C56.6643 100.749 57.9239 100.225 59.5881 100.225V100.234Z" fill="black"/>
<path d="M67.0352 112.853H75.0617V112.116H67.8167V106.502H74.648V105.775H67.8167V100.344H75.0617V99.6171H67.0352V112.853Z" fill="black"/>
<path d="M82.6005 107.367H77.5713V108.085H82.6005V107.367Z" fill="black"/>
<path d="M93.4773 100.363C92.4843 99.8563 91.2799 99.6078 89.8548 99.6078H85.8369V112.843H89.8548C91.2799 112.843 92.4843 112.595 93.4773 112.089C94.4611 111.582 95.215 110.837 95.7299 109.852C96.2448 108.867 96.5022 107.652 96.5022 106.207C96.5022 104.762 96.2448 103.556 95.7299 102.572C95.215 101.587 94.4703 100.85 93.4773 100.353V100.363ZM94.1945 110.644C93.2199 111.628 91.7488 112.116 89.7812 112.116H86.6276V100.344H89.7812C91.758 100.344 93.2291 100.832 94.1945 101.808C95.1598 102.783 95.6471 104.256 95.6471 106.226C95.6471 108.195 95.1598 109.659 94.1945 110.644Z" fill="black"/>
<path d="M106.883 106.87C106.515 106.649 106.092 106.557 105.623 106.539C106.101 106.483 106.598 106.447 106.993 106.262C107.572 105.996 108.032 105.6 108.372 105.084C108.712 104.569 108.878 103.934 108.878 103.197C108.878 102.056 108.51 101.182 107.775 100.556C107.039 99.93 106 99.6171 104.658 99.6171H99.5918V112.853H100.383V106.806H104.152C104.915 106.806 105.531 106.907 106.019 107.1C106.506 107.293 106.874 107.735 107.113 108.425L108.768 112.853H109.65L107.83 108.122C107.591 107.523 107.278 107.109 106.883 106.879V106.87ZM100.383 106.069V100.344H104.584C105.706 100.344 106.57 100.584 107.149 101.071C107.738 101.559 108.032 102.268 108.032 103.188C108.032 104.109 107.738 104.827 107.149 105.324C106.561 105.821 105.706 106.06 104.584 106.06H100.383V106.069Z" fill="black"/>
<path d="M113.209 99.6171H112.418V112.853H113.209V99.6171Z" fill="black"/>
<path d="M121.364 111.923L116.095 99.6171H115.259L120.922 112.853H121.777L127.505 99.6171H126.678L121.364 111.923Z" fill="black"/>
<path d="M129.547 112.853H137.573V112.116H130.328V106.502H137.16V105.775H130.328V100.344H137.573V99.6171H129.547V112.853Z" fill="black"/>
<path d="M149.948 111.537L141.131 99.6171H140.46V112.853H141.186V100.906L150.022 112.853H150.684V99.6171H149.948V111.537Z" fill="black"/>
<path d="M163.868 106.226L161.993 105.848C161.018 105.646 160.31 105.342 159.878 104.937C159.437 104.532 159.216 103.961 159.216 103.216C159.216 102.305 159.556 101.577 160.237 101.034C160.917 100.501 161.836 100.234 162.986 100.234C163.832 100.234 164.567 100.363 165.22 100.611C165.864 100.86 166.498 101.283 167.114 101.872L167.491 101.191C166.939 100.62 166.286 100.188 165.523 99.9023C164.76 99.6078 163.914 99.4697 162.986 99.4697C162.057 99.4697 161.276 99.6262 160.586 99.9391C159.896 100.252 159.363 100.694 158.968 101.255C158.582 101.817 158.389 102.48 158.389 103.225C158.389 104.182 158.683 104.928 159.271 105.462C159.86 105.996 160.761 106.391 161.974 106.64L163.832 107.017C164.907 107.229 165.661 107.523 166.112 107.901C166.553 108.278 166.783 108.812 166.783 109.512C166.783 110.34 166.461 110.993 165.836 111.5C165.202 111.997 164.273 112.236 163.05 112.236C162.388 112.236 161.8 112.181 161.294 112.079C160.788 111.969 160.319 111.803 159.896 111.573C159.474 111.343 159.032 111.049 158.563 110.68L158.168 111.362C158.793 111.895 159.501 112.31 160.283 112.595C161.073 112.88 161.993 113.018 163.059 113.018C163.997 113.018 164.806 112.871 165.487 112.577C166.167 112.282 166.691 111.868 167.05 111.334C167.408 110.8 167.592 110.193 167.592 109.502C167.592 108.573 167.298 107.864 166.7 107.367C166.103 106.87 165.156 106.493 163.859 106.235L163.868 106.226Z" fill="black"/>
<path d="M179.176 99.6171H178.027L171.159 105.775H171.122V99.6171H170.341V112.853H171.122V106.502H171.159L178.57 112.853H179.756L171.849 106.115L179.176 99.6171Z" fill="black"/>
<path d="M182.477 99.6171H181.687V112.853H182.477V99.6171Z" fill="black"/>
<path d="M195.598 111.537L186.79 99.6171H186.109V112.853H186.836V100.906L195.671 112.853H196.333V99.6171H195.598V111.537Z" fill="black"/>
<path d="M205.353 100.234C206.208 100.234 206.943 100.363 207.578 100.639C208.203 100.906 208.828 101.338 209.444 101.927L209.858 101.265C209.297 100.676 208.644 100.225 207.918 99.9208C207.182 99.6078 206.336 99.4606 205.371 99.4606C204.093 99.4606 203.017 99.7275 202.135 100.271C201.252 100.814 200.581 101.596 200.121 102.599C199.661 103.602 199.432 104.808 199.432 106.216C199.432 107.625 199.661 108.83 200.121 109.834C200.581 110.846 201.261 111.629 202.135 112.172C203.017 112.715 204.093 112.991 205.371 112.991C206.327 112.991 207.164 112.834 207.909 112.531C208.644 112.218 209.297 111.776 209.858 111.187L209.444 110.533C208.828 111.122 208.203 111.546 207.578 111.813C206.943 112.08 206.208 112.218 205.353 112.218C203.689 112.218 202.429 111.693 201.565 110.644C200.7 109.594 200.268 108.113 200.268 106.216C200.268 104.32 200.7 102.839 201.565 101.789C202.429 100.749 203.689 100.225 205.353 100.225V100.234Z" fill="black"/>
<path d="M216.928 99.6171L211.246 112.853H212.092L213.655 109.189H221.038L222.629 112.853H223.493L217.7 99.6171H216.928ZM213.968 108.453L217.278 100.666H217.314L220.716 108.453H213.968Z" fill="black"/>
<path d="M233.229 106.87C232.862 106.649 232.439 106.557 231.97 106.539C232.448 106.483 232.944 106.447 233.34 106.262C233.919 105.996 234.379 105.6 234.719 105.084C235.059 104.569 235.225 103.934 235.225 103.197C235.225 102.056 234.857 101.182 234.121 100.556C233.386 99.93 232.347 99.6171 231.004 99.6171H225.938V112.853H226.729V106.806H230.499C231.262 106.806 231.878 106.907 232.365 107.1C232.853 107.293 233.22 107.735 233.459 108.425L235.114 112.853H235.997L234.176 108.122C233.937 107.523 233.625 107.109 233.229 106.879V106.87ZM226.729 106.069V100.344H230.931C232.053 100.344 232.917 100.584 233.496 101.071C234.085 101.559 234.379 102.268 234.379 103.188C234.379 104.109 234.085 104.827 233.496 105.324C232.908 105.821 232.053 106.06 230.931 106.06H226.729V106.069Z" fill="black"/>
<path d="M246.8 100.344V99.6171H238.773V112.853H246.8V112.116H239.564V106.502H246.395V105.775H239.564V100.344H246.8Z" fill="black"/>
<path d="M239.224 -4.94109e-05C240.107 -4.94109e-05 240.999 -4.94065e-05 241.845 0.285281C242.847 0.625836 243.077 1.22411 242.442 2.05249C239.555 5.8078 236.641 9.54471 233.717 13.2724C232.651 14.6346 231.115 14.561 229.635 14.5058C227.06 14.4137 226.812 13.8891 228.164 11.7261C230.058 8.69792 232.044 5.72497 233.818 2.63235C234.839 0.855941 236.181 -0.00925361 238.167 -4.94109e-05C238.516 -4.94109e-05 238.875 -4.94109e-05 239.224 -4.94109e-05Z" fill="black"/>
</g>
<defs>
<clipPath id="clip0_4161_109">
<rect width="250" height="113" fill="white"/>
</clipPath>
</defs>
</svg>
