<svg width="30" height="30" viewBox="0 0 30 30" fill="none" xmlns="http://www.w3.org/2000/svg">
<g clip-path="url(#clip0_4161_149)">
<path d="M30.0004 28.236L22.1881 20.4237C26.5565 15.0811 25.7667 7.2089 20.4241 2.84056C15.0815 -1.52778 7.20927 -0.737996 2.84093 4.60464C-1.52741 9.94728 -0.737625 17.8195 4.60495 22.1878C9.20679 25.9505 15.8223 25.9505 20.424 22.1878L28.2363 30L30.0004 28.236ZM12.5345 22.5146C7.02241 22.5146 2.554 18.0462 2.554 12.5341C2.554 7.02204 7.02241 2.55363 12.5345 2.55363C18.0466 2.55363 22.515 7.02204 22.515 12.5341C22.5088 18.0436 18.044 22.5084 12.5345 22.5146Z" fill="black"/>
</g>
<defs>
<clipPath id="clip0_4161_149">
<rect width="30" height="30" fill="white"/>
</clipPath>
</defs>
</svg>
